<?xml version="1.0" encoding="iso-8859-1"?>
<!-- Generator: Adobe Illustrator 19.0.0, SVG Export Plug-In . SVG Version: 6.00 Build 0)  -->
<svg version="1.1" id="Capa_1" xmlns="http://www.w3.org/2000/svg" xmlns:xlink="http://www.w3.org/1999/xlink" x="0px" y="0px"
	 viewBox="0 0 512.042 512.042" style="enable-background:new 0 0 512.042 512.042;" xml:space="preserve">
<g>
	<g>
		<path d="M320.021,106.709v42.667c0,35.346-28.654,64-64,64s-64-28.654-64-64v-42.667h-21.333v42.667
			c0.053,47.106,38.227,85.28,85.333,85.333c47.106-0.053,85.28-38.227,85.333-85.333v-42.667H320.021z"/>
	</g>
</g>
<g>
	<g>
		<path d="M373.76,279.797l-75.072-38.933v-27.488h-21.333v33.973c0,3.985,2.221,7.639,5.76,9.472l80.832,41.888
			c25.781,13.634,41.767,40.545,41.408,69.707v122.293H106.688V368.415c-0.359-29.162,15.627-56.073,41.408-69.707l80.832-41.888
			c3.539-1.833,5.76-5.487,5.76-9.472v-33.973h-21.333v27.488l-75.072,38.933c-32.863,17.279-53.297,51.492-52.928,88.619v132.96
			c0,5.891,4.776,10.667,10.667,10.667h320v0c5.891,0,10.667-4.776,10.667-10.667v-132.96
			C427.057,331.288,406.623,297.075,373.76,279.797z"/>
	</g>
</g>
<g>
	<g>
		<path d="M277.354,245.375c0,11.782-9.551,21.333-21.333,21.333s-21.333-9.551-21.333-21.333h-21.333
			c0,23.564,19.103,42.667,42.667,42.667s42.667-19.103,42.667-42.667H277.354z"/>
	</g>
</g>
<g>
	<g>
		<rect x="181.354" y="149.375" width="149.333" height="21.333"/>
	</g>
</g>
<g>
	<g>
		<path d="M263.808,0.287c-32.447-2.284-64.367,9.128-88.011,31.467c-23.632,22.213-37.057,53.189-37.109,85.621v96
			c0,17.673,14.327,32,32,32h53.333v-21.333h-53.333c-5.891,0-10.667-4.776-10.667-10.667v-96c0-2.135,0.071-4.27,0.214-6.4
			c3.535-52.901,49.285-92.921,102.186-89.386c51.344,4.474,90.478,47.904,89.6,99.435v92.352c0,5.891-4.776,10.667-10.667,10.667
			h-53.333v21.333h53.333c17.673,0,32-14.327,32-32v-92.352C374.238,58.245,326.376,5.494,263.808,0.287z"/>
	</g>
</g>
<g>
	<g>
		<rect x="149.354" y="96.042" width="213.333" height="21.333"/>
	</g>
</g>
<g>
	<g>
		<rect x="149.354" y="405.375" width="21.333" height="96"/>
	</g>
</g>
<g>
	<g>
		<rect x="341.354" y="405.375" width="21.333" height="96"/>
	</g>
</g>
<g>
	<g>
		<rect x="298.688" y="320.042" width="21.333" height="64"/>
	</g>
</g>
<g>
	<g>
		<rect x="277.354" y="341.375" width="64" height="21.333"/>
	</g>
</g>
<g>
	<g>
		<path d="M271.104,53.375l-7.541-7.541c-4.165-4.164-10.917-4.164-15.083,0l-7.541,7.541h-16.917v21.333h21.333
			c2.829-0.001,5.541-1.125,7.541-3.125l3.125-3.125l3.125,3.125c2,2.001,4.713,3.125,7.541,3.125h21.333V53.375H271.104z"/>
	</g>
</g>
<g>
</g>
<g>
</g>
<g>
</g>
<g>
</g>
<g>
</g>
<g>
</g>
<g>
</g>
<g>
</g>
<g>
</g>
<g>
</g>
<g>
</g>
<g>
</g>
<g>
</g>
<g>
</g>
<g>
</g>
</svg>
