<svg id="Capa_1" enable-background="new 0 0 510.671 510.671" height="512" viewBox="0 0 510.671 510.671" width="512" xmlns="http://www.w3.org/2000/svg"><g><path d="m83.564 412.796c0-4.143-3.358-7.5-7.5-7.5h-46.083c-8.261 0-14.981-6.72-14.981-14.98v-323.915h411.3v97.608c0 4.143 3.357 7.5 7.5 7.5s7.5-3.357 7.5-7.5v-125.944c0-16.532-13.449-29.981-29.98-29.981h-306.485c-4.142 0-7.5 3.357-7.5 7.5s3.358 7.5 7.5 7.5h306.484c8.261 0 14.98 6.721 14.98 14.981v13.336h-411.299v-13.336c0-8.261 6.721-14.981 14.981-14.981h42.891c4.142 0 7.5-3.357 7.5-7.5s-3.358-7.5-7.5-7.5h-42.891c-16.531 0-29.981 13.449-29.981 29.981v352.25c0 16.531 13.45 29.98 29.981 29.98h46.083c4.142.001 7.5-3.357 7.5-7.499z"/><path d="m465.702 215.747c0-16.121-13.116-29.237-29.237-29.237h-219.024c-4.142 0-7.5 3.357-7.5 7.5s3.358 7.5 7.5 7.5h219.024c7.851 0 14.237 6.387 14.237 14.237v15.795h-337.138v-15.795c0-7.851 6.387-14.237 14.238-14.237h57.677c4.142 0 7.5-3.357 7.5-7.5s-3.358-7.5-7.5-7.5h-57.677c-16.122 0-29.238 13.116-29.238 29.237v211.188c0 16.121 13.116 29.237 29.238 29.237h308.663c16.121 0 29.237-13.116 29.237-29.237zm-29.237 225.426h-308.663c-7.851 0-14.238-6.387-14.238-14.237v-180.394h337.138v180.394c0 7.85-6.387 14.237-14.237 14.237z"/><path d="m83.551 457.962-19.5 19.5v-10.339c0-4.143-3.358-7.5-7.5-7.5s-7.5 3.357-7.5 7.5v27.964c0 4.143 3.358 7.5 7.5 7.5h26.518c4.142 0 7.5-3.357 7.5-7.5s-3.358-7.5-7.5-7.5h-7.929l19.018-19.018c2.929-2.93 2.929-7.678 0-10.607-2.929-2.928-7.678-2.928-10.607 0z"/><path d="m503.171 459.623c-4.143 0-7.5 3.357-7.5 7.5v10.339l-19.5-19.5c-2.93-2.928-7.678-2.928-10.607 0-2.929 2.93-2.929 7.678 0 10.607l19.018 19.018h-7.929c-4.143 0-7.5 3.357-7.5 7.5s3.357 7.5 7.5 7.5h26.519c4.143 0 7.5-3.357 7.5-7.5v-27.964c-.001-4.143-3.359-7.5-7.501-7.5z"/><path d="m75.139 155.096h7.929c4.142 0 7.5-3.357 7.5-7.5s-3.358-7.5-7.5-7.5h-26.518c-4.142 0-7.5 3.357-7.5 7.5v27.965c0 4.143 3.358 7.5 7.5 7.5s7.5-3.357 7.5-7.5v-10.34l19.5 19.501c1.464 1.464 3.384 2.196 5.303 2.196s3.839-.732 5.303-2.196c2.929-2.93 2.929-7.678 0-10.607z"/><path d="m503.171 140.096h-26.519c-4.143 0-7.5 3.357-7.5 7.5s3.357 7.5 7.5 7.5h7.93l-19.019 19.02c-2.929 2.929-2.929 7.678.001 10.606 1.464 1.464 3.384 2.196 5.303 2.196s3.839-.732 5.304-2.197l19.5-19.501v10.341c0 4.143 3.357 7.5 7.5 7.5s7.5-3.357 7.5-7.5v-27.965c0-4.143-3.358-7.5-7.5-7.5z"/><path d="m374.505 165.097c4.143 0 7.5-3.357 7.5-7.5v-43.326c0-11.422-9.292-20.714-20.714-20.714h-195.861c-11.422 0-20.714 9.292-20.714 20.714v43.326c0 4.143 3.358 7.5 7.5 7.5s7.5-3.357 7.5-7.5v-43.326c0-3.15 2.563-5.714 5.714-5.714h195.861c3.15 0 5.714 2.563 5.714 5.714v43.326c0 4.142 3.357 7.5 7.5 7.5z"/><path d="m398.745 273.804h-233.224c-11.234 0-20.374 9.14-20.374 20.374v96.264c0 11.234 9.14 20.374 20.374 20.374h147.569c4.143 0 7.5-3.357 7.5-7.5s-3.357-7.5-7.5-7.5h-136.42l105.128-44.949 105.128 44.949h-41.873c-4.143 0-7.5 3.357-7.5 7.5s3.357 7.5 7.5 7.5h53.692c11.234 0 20.374-9.14 20.374-20.374v-96.264c0-11.235-9.14-20.374-20.374-20.374zm-9.949 15-106.999 45.749-106.998-45.749zm-228.649 97.761v-87.712l102.572 43.856zm243.972-87.999v88.286l-103.244-44.143z"/></g></svg>